<?xml version="1.0" encoding="UTF-8" standalone="no"?>
<!-- Created with Inkscape (http://www.inkscape.org/) -->

<svg
   width="210mm"
   height="297mm"
   viewBox="0 0 210 297"
   version="1.1"
   id="svg1"
   xml:space="preserve"
   inkscape:version="1.3.2 (091e20e, 2023-11-25, custom)"
   sodipodi:docname="logo 2 .svg"
   xmlns:inkscape="http://www.inkscape.org/namespaces/inkscape"
   xmlns:sodipodi="http://sodipodi.sourceforge.net/DTD/sodipodi-0.dtd"
   xmlns:xlink="http://www.w3.org/1999/xlink"
   xmlns="http://www.w3.org/2000/svg"
   xmlns:svg="http://www.w3.org/2000/svg"><sodipodi:namedview
     id="namedview1"
     pagecolor="#ffffff"
     bordercolor="#000000"
     borderopacity="0.25"
     inkscape:showpageshadow="2"
     inkscape:pageopacity="0.0"
     inkscape:pagecheckerboard="0"
     inkscape:deskcolor="#d1d1d1"
     inkscape:document-units="mm"
     showguides="true"
     inkscape:zoom="1"
     inkscape:cx="518"
     inkscape:cy="435.5"
     inkscape:window-width="1366"
     inkscape:window-height="705"
     inkscape:window-x="-8"
     inkscape:window-y="-8"
     inkscape:window-maximized="1"
     inkscape:current-layer="layer1" /><defs
     id="defs1"><rect
       x="372.56887"
       y="449.12412"
       width="13.609822"
       height="71.451564"
       id="rect10" /><symbol
       id="Heliport"><title
         id="title137">Heliport</title><!-- Pontoon --><path
         d="M 31,53 H 61"
         style="fill:none;stroke-width:6;stroke-linecap:round"
         id="path138" /><!-- Body --><path
         d="M 30.5,42 29,38 10,30.5 C 7.5,29.5 8,26 11,26 h 41 c 4.5,0 7.4,3 8.5,6 l 3,8 c 1,3 -0.5,5 -3.5,5 H 34 c -2.5,0 -3,-1.5 -3.5,-3 z"
         style="stroke:none"
         id="path139" /><!-- Windows --><g
         style="fill:#ffffff;stroke:none"
         id="g142"><path
           d="m 40,36 h 4.5 V 29 H 40 Z"
           id="path140" /><path
           d="m 47,36 h 4.5 V 29 H 47 Z"
           id="path141" /><path
           d="M 58,32.5 59.5,36 H 54 v -7 c 1.5,0.3 3.1,1.5 4,3.5 z"
           id="path142" /></g><!-- Roter --><g
         style="fill:none;stroke-width:3"
         id="g146"><path
           d="m 38.5,20 v 6"
           id="path143" /><path
           d="m 33.5,19.5 h 10"
           style="stroke-width:1.5"
           id="path144" /><path
           d="m 15.5,19.5 h 17"
           style="stroke-linecap:round"
           id="path145" /><path
           d="m 44.5,19.5 h 17"
           style="stroke-linecap:round"
           id="path146" /></g><!-- Tail Roter --><circle
         cx="10.5"
         cy="28.5"
         r="5.5"
         style="fill:none;stroke-width:2.5"
         id="circle146" /></symbol><symbol
       id="Cashier_Inv"><title
         id="title28">Cashier</title><rect
         x="0.5"
         y="0.5"
         width="71"
         height="71"
         ry="6"
         style="stroke:#ffffff"
         id="rect28" /><g
         style="fill:none;stroke:#ffffff;stroke-width:6"
         id="g29"><circle
           cx="36"
           cy="36"
           r="24"
           id="circle29" /><path
           d="m 45,30 c 0,-4 -4,-6 -9,-6 -5,0 -9,2 -9,6 0,4 4,5.5 9,6 5,0.5 10,1 10,6 0,5 -5,6 -10,6 -5,0 -9,-3 -9,-7 m 9,-24 v 38"
           id="path29" /></g></symbol><symbol
       id="Coffeeshop_Inv"><title
         id="title186">Coffeeshop</title><rect
         x="0.5"
         y="0.5"
         width="71"
         height="71"
         ry="6"
         style="stroke:#ffffff"
         id="rect186" /><g
         style="fill:#ffffff;fill-rule:evenodd;stroke:none"
         id="g188"><path
           d="m 20,45 a 5,5 0 0 0 5,5 h 22 a 5,5 0 0 0 5,-5 v -1 h 1 A 10,10 0 0 0 53,24 H 20 Z M 52,28 v 12 h 1 a 6,6 0 0 0 0,-12 z"
           id="path187" /><path
           d="m 8,52 a 6,6 0 0 0 6,6 h 44 a 6,6 0 0 0 6,-6 z"
           id="path188" /></g></symbol><symbol
       id="Coffeeshop"><title
         id="title184">Coffeeshop</title><g
         style="fill-rule:evenodd;stroke:none"
         id="g186"><path
           d="m 20,45 a 5,5 0 0 0 5,5 h 22 a 5,5 0 0 0 5,-5 v -1 h 1 A 10,10 0 0 0 53,24 H 20 Z M 52,28 v 12 h 1 a 6,6 0 0 0 0,-12 z"
           id="path185" /><path
           d="m 8,52 a 6,6 0 0 0 6,6 h 44 a 6,6 0 0 0 6,-6 z"
           id="path186" /></g></symbol><filter
       inkscape:collect="always"
       style="color-interpolation-filters:sRGB"
       id="filter5"
       x="-0.0052521612"
       y="-0.0086506184"
       width="1.0105043"
       height="1.0173012"><feGaussianBlur
         inkscape:collect="always"
         stdDeviation="0.12255043"
         id="feGaussianBlur5" /></filter></defs><g
     inkscape:label="Layer 1"
     inkscape:groupmode="layer"
     id="layer1"><ellipse
       style="fill:#ffff00;stroke-width:0.264583"
       id="path1"
       cx="104.44597"
       cy="137.1218"
       rx="53.098236"
       ry="49.597248" /><ellipse
       style="fill:#ffff00;stroke-width:0.264583"
       id="path3"
       cx="116.99115"
       cy="170.96463"
       rx="7.2937131"
       ry="9.3359528" /><ellipse
       style="fill:#ffff00;stroke-width:0.264583"
       id="path4"
       cx="87.232811"
       cy="163.67091"
       rx="7.2937131"
       ry="2.6257367" /><use
       xlink:href="#Coffeeshop"
       style="opacity:1;fill:#000000;stroke:#808080;stroke-width:38.778;stroke-linejoin:bevel;stroke-dasharray:none;stroke-opacity:1;filter:url(#filter5)"
       id="use1"
       transform="matrix(0.74685101,0,0,0.96623552,76.975839,102.16585)" /><text
       xml:space="preserve"
       style="font-style:normal;font-variant:normal;font-weight:normal;font-stretch:normal;font-size:13px;font-family:'Bauhaus 93';-inkscape-font-specification:'Bauhaus 93, ';white-space:pre;inline-size:57.5949;opacity:1;fill:#68e1e5;fill-opacity:1;stroke:#808080;stroke-width:0.26;stroke-linejoin:bevel;stroke-dasharray:none;stroke-opacity:1;paint-order:fill markers stroke"
       x="72.018639"
       y="185.89812"
       id="text8" /><text
       xml:space="preserve"
       style="font-style:normal;font-variant:normal;font-weight:normal;font-stretch:normal;font-size:13px;font-family:'Bauhaus 93';-inkscape-font-specification:'Bauhaus 93, ';opacity:1;fill:#9b2496;fill-opacity:1;stroke:#808080;stroke-width:0.26;stroke-linejoin:bevel;stroke-dasharray:none;stroke-opacity:1;paint-order:fill markers stroke"
       x="66.167122"
       y="197.60115"
       id="text9"><tspan
         sodipodi:role="line"
         id="tspan9"
         style="stroke-width:0.26;fill:#9b2496;fill-opacity:1"
         x="66.167122"
         y="197.60115">golden cup</tspan></text><text
       xml:space="preserve"
       transform="scale(0.26458333)"
       id="text10"
       style="fill:#9b2496;fill-opacity:1;opacity:1;stroke:#808080;stroke-width:0.98267717;stroke-dasharray:none;paint-order:fill markers stroke;stroke-linejoin:bevel;stroke-opacity:1;-inkscape-font-specification:'Bauhaus 93, ';font-family:'Bauhaus 93';font-weight:normal;font-style:normal;font-stretch:normal;font-variant:normal;font-size:49.13385827px;white-space:pre;shape-inside:url(#rect10)" /><path
       style="opacity:1;fill:#9b2496;fill-opacity:1;stroke:#808080;stroke-width:0.26;stroke-linejoin:bevel;stroke-dasharray:none;stroke-opacity:1;paint-order:fill markers stroke"
       d="m 266.7,116.94583 c 0,2.11667 0,4.23334 0,6.35 0,0.17639 0,0.35278 0,0.52917 0,0.0882 -0.0624,0.20222 0,0.26458 0.0624,0.0624 0.17639,0 0.26458,0"
       id="path11" /></g></svg>
